<svg xmlns="http://www.w3.org/2000/svg" width="60" height="60" viewBox="0 0 60 60">
    <defs>
        <style>
            .cls-1,.cls-5{fill:none}.cls-5{stroke:#282828;stroke-width:1.3px;stroke-linecap:round}.cls-6{stroke:none}
        </style>
    </defs>
    <g id="그룹_928" transform="translate(-224 -746)">
        <path id="사각형_1224" d="M0 0H60V60H0z" class="cls-1" transform="translate(224 746)"/>
        <g id="그룹_920" transform="translate(-71.7 210.3)">
            <path id="사각형_1211" fill="#fff" d="M0 0H24V24H0z" transform="translate(313.7 553.7)"/>
            <g id="그룹_919" transform="translate(319.925 555.54)">
                <g id="타원_58" fill="#fff" stroke="#282828" stroke-width="1.3px" transform="translate(3.963 13.865)">
                    <circle cx="3" cy="3" r="3" class="cls-6"/>
                    <circle cx="3" cy="3" r="2.35" class="cls-1"/>
                </g>
                <g id="합치기_20" fill="#fff" stroke-linejoin="round">
                    <path d="M10.13 12.685H-.65V4.629C-.65 1.72 1.768-.65 4.74-.65c2.972 0 5.39 2.368 5.39 5.28v8.055z" class="cls-6" transform="translate(1.777 4.2)"/>
                    <path fill="#282828" d="M9.48 12.035V4.629C9.48 2.072 7.357 0 4.74 0 2.121 0 0 2.072 0 4.63v7.405h9.48m0 1.3H0c-.718 0-1.3-.582-1.3-1.3V4.629C-1.3 1.36 1.41-1.3 4.74-1.3s6.04 2.66 6.04 5.93v7.405c0 .718-.582 1.3-1.3 1.3z" transform="translate(1.777 4.2)"/>
                </g>
                <path id="패스_238" d="M0 0h13" class="cls-5" transform="rotate(180 6.517 8.48)"/>
                <path id="패스_239" d="M0 0h2" class="cls-5" transform="rotate(90 2.759 3.759)"/>
            </g>
        </g>
    </g>
</svg>
