<svg xmlns="http://www.w3.org/2000/svg" width="64" height="64" viewBox="0 0 64 64">
    <defs>
        <style>
            .cls-3,.cls-5{fill:none}.cls-5{stroke:#1877f2;stroke-width:1.3px;stroke-linecap:round}
        </style>
    </defs>
    <g id="그룹_1457" transform="translate(-156 -595)">
        <rect id="사각형_1621" width="64" height="64" fill="#1877f2" opacity="0.08" rx="15" transform="translate(156 595)"/>
        <text id="Notice" fill="#1877f2" font-family="NotoSansCJKkr-Medium, Noto Sans CJK KR" font-size="10px" font-weight="500" transform="translate(173 647)">
            <tspan x="0" y="0">Notice</tspan>
        </text>
        <path id="사각형_1224" d="M0 0H60V60H0z" class="cls-3" transform="translate(158 597)"/>
        <g id="그룹_920" transform="translate(-137.7 54.3)">
            <path id="사각형_1211" d="M0 0H24V24H0z" class="cls-3" transform="translate(313.7 553.7)"/>
            <g id="그룹_919" transform="translate(319.925 555.54)">
                <g id="합치기_20" fill="none" stroke="none" stroke-linejoin="round">
                    <path d="M0 12.035V4.629A4.685 4.685 0 0 1 4.74 0a4.686 4.686 0 0 1 4.74 4.629v7.405z" transform="translate(1.777 4.2)"/>
                    <path fill="#1877f2" d="M9.48 12.035V4.629C9.48 2.072 7.357 0 4.74 0 2.121 0 0 2.072 0 4.63v7.405h9.48m0 1.3H0c-.718 0-1.3-.582-1.3-1.3V4.629C-1.3 1.36 1.41-1.3 4.74-1.3s6.04 2.66 6.04 5.93v7.405c0 .718-.582 1.3-1.3 1.3z" transform="translate(1.777 4.2)"/>
                </g>
                <path id="패스_238" d="M0 0h13" class="cls-5" transform="rotate(180 6.517 8.48)"/>
                <path id="패스_239" d="M0 0h2" class="cls-5" transform="rotate(90 2.759 3.759)"/>
                <path id="빼기_1" fill="none" stroke="#1877f2" stroke-width="1.3px" d="M-6292.04-594.826a2.357 2.357 0 0 1-2.35-2.33h4.7a2.357 2.357 0 0 1-2.35 2.33z" transform="translate(6299.002 614.04)"/>
            </g>
        </g>
    </g>
</svg>
