<svg xmlns="http://www.w3.org/2000/svg" id="그룹_2" width="43.141" height="19" viewBox="0 0 43.141 19">
    <defs>
        <style>
            .cls-1{fill:#1877f2}
        </style>
    </defs>
    <path id="패스_6" d="M165.2 209.524H161v-16.94a2.051 2.051 0 0 1 2.1-2 2.05 2.05 0 0 1 2.1 2z" class="cls-1" transform="translate(-160.998 -190.587)"/>
    <path id="패스_7" d="M200.71 209.524h-3.526a.329.329 0 0 1-.337-.32v-10.883a.207.207 0 0 0-.381-.1l-4.32 6.707a.346.346 0 0 1-.575 0l-4.32-6.707a.207.207 0 0 0-.381.1V209.2a.329.329 0 0 1-.337.32h-3.526a.329.329 0 0 1-.337-.32v-16.649a2.017 2.017 0 0 1 2.066-1.964h1.891a.341.341 0 0 1 .288.154l4.77 7.416a.211.211 0 0 0 .35 0l4.159-6.465a2.458 2.458 0 0 1 2.071-1.1h2.447a.33.33 0 0 1 .337.321v18.3a.329.329 0 0 1-.339.311z" class="cls-1" transform="translate(-174.185 -190.587)"/>
    <path id="패스_8" d="M250.989 202.454a4.371 4.371 0 0 0-.879-1.51 6.593 6.593 0 0 0-1.519-1.241 14.936 14.936 0 0 0-2.2-1.077l-1.466-.585a7.136 7.136 0 0 1-1.772-.96 1.786 1.786 0 0 1 .077-2.821 2.726 2.726 0 0 1 1.686-.55A3.5 3.5 0 0 1 248 195.4l.008-.007 2.4-2.727a7.569 7.569 0 0 0-2.142-1.422 8.235 8.235 0 0 0-3.332-.62 9.217 9.217 0 0 0-2.747.375 6.052 6.052 0 0 0-2.026 1.041 4.531 4.531 0 0 0-1.267 1.592 5.092 5.092 0 0 0-.053 4.016 4.95 4.95 0 0 0 1.026 1.475 6.787 6.787 0 0 0 1.479 1.1 15.291 15.291 0 0 0 1.772.843l1.652.656a5.776 5.776 0 0 1 1.892 1.1 2.061 2.061 0 0 1 .56 1.522 1.879 1.879 0 0 1-.786 1.592 2.971 2.971 0 0 1-1.825.585 3.928 3.928 0 0 1-2-.491 3.66 3.66 0 0 1-1.412-1.639l-2.464 2.8a6.757 6.757 0 0 0 1.93 1.566 8.455 8.455 0 0 0 3.971.855 8.771 8.771 0 0 0 2.736-.4 6.537 6.537 0 0 0 2.089-1.1 4.837 4.837 0 0 0 1.341-1.675 4.747 4.747 0 0 0 .469-2.1 5.89 5.89 0 0 0-.282-1.883z" class="cls-1" transform="translate(-208.128 -190.607)"/>
</svg>
