<svg xmlns="http://www.w3.org/2000/svg" width="60" height="60" viewBox="0 0 60 60">
    <defs>
        <style>
            .cls-1,.cls-3{fill:none}.cls-2{fill:#fff;stroke-linecap:round;stroke-linejoin:round}.cls-2,.cls-3{stroke:#282828;stroke-width:1.3px}.cls-4{stroke:none}
        </style>
    </defs>
    <g id="그룹_930" transform="translate(-75 -746)">
        <path id="사각형_1222" d="M0 0H60V60H0z" class="cls-1" transform="translate(75 746)"/>
        <g id="그룹_925" transform="translate(-83.26 394)">
            <path id="사각형_1212" d="M0 0H24V24H0z" class="cls-1" transform="translate(177 370)"/>
            <path id="합치기_6" d="M1.671 10.71A1.67 1.67 0 0 1 0 9.04V4a1.671 1.671 0 0 1 1.671-1.669h1.153L1.527 0l4.206 2.331h7.075A1.671 1.671 0 0 1 14.479 4v5.04a1.67 1.67 0 0 1-1.671 1.67z" class="cls-2" transform="rotate(180 93.87 190.355)"/>
            <g id="그룹_57" transform="translate(180.252 380.334)">
                <path id="패스_87" d="M64.006 872.738h-2.313s-1.33.174-1.388-.867a4.324 4.324 0 0 1 .347-2.949c.655-1.109 2.834-1.157 2.834-1.157a14.052 14.052 0 0 0 4.164-1.292 24.918 24.918 0 0 1 5.321-2.12 8.2 8.2 0 0 1 5.263.347c1.446.771 4.683 2.631 5.494 3.779.032.045 0 4.55 0 4.55h-2.777" class="cls-2" transform="translate(-60.21 -864.075)"/>
                <g id="타원_37" class="cls-3" transform="translate(16.462 6.13)">
                    <circle cx="2.313" cy="2.313" r="2.313" class="cls-4"/>
                    <circle cx="2.313" cy="2.313" r="1.663" class="cls-1"/>
                </g>
                <g id="타원_36" class="cls-3" transform="translate(3.507 6.13)">
                    <circle cx="2.313" cy="2.313" r="2.313" class="cls-4"/>
                    <circle cx="2.313" cy="2.313" r="1.663" class="cls-1"/>
                </g>
                <path id="패스_86" d="M68.5 873.313h9.485" class="cls-3" transform="translate(-60.944 -864.591)"/>
            </g>
        </g>
    </g>
</svg>
